solid OpenSCAD_Model
  facet normal -1 0 0
    outer loop
      vertex 58.5 28.5 3
      vertex 58.5 38.5 18
      vertex 58.5 38.5 3
    endloop
  endfacet
  facet normal -1 -0 0
    outer loop
      vertex 58.5 38.5 18
      vertex 58.5 28.5 3
      vertex 58.5 28.5 18
    endloop
  endfacet
  facet normal -1 0 0
    outer loop
      vertex 58.5 8.5 3
      vertex 58.5 18.5 18
      vertex 58.5 18.5 3
    endloop
  endfacet
  facet normal -1 -0 0
    outer loop
      vertex 58.5 18.5 18
      vertex 58.5 8.5 3
      vertex 58.5 8.5 18
    endloop
  endfacet
  facet normal 0 0 1
    outer loop
      vertex 59.5 39.5 18
      vertex 58.5 38.5 18
      vertex 59.5 28.5 18
    endloop
  endfacet
  facet normal 0 0 1
    outer loop
      vertex 59.5 39.5 18
      vertex 8.5 38.5 18
      vertex 58.5 38.5 18
    endloop
  endfacet
  facet normal -0 0 1
    outer loop
      vertex 7.5 39.5 18
      vertex 8.5 38.5 18
      vertex 59.5 39.5 18
    endloop
  endfacet
  facet normal 0 0 1
    outer loop
      vertex 7.5 28.5 18
      vertex 8.5 38.5 18
      vertex 7.5 39.5 18
    endloop
  endfacet
  facet normal 0 0 1
    outer loop
      vertex 8.5 38.5 18
      vertex 7.5 28.5 18
      vertex 8.5 28.5 18
    endloop
  endfacet
  facet normal 0 0 1
    outer loop
      vertex 59.5 28.5 18
      vertex 58.5 38.5 18
      vertex 58.5 28.5 18
    endloop
  endfacet
  facet normal 0 0 1
    outer loop
      vertex 8.5 18.5 18
      vertex 7.5 18.5 18
      vertex 8.5 8.5 18
    endloop
  endfacet
  facet normal 0 0 1
    outer loop
      vertex 58.5 8.5 18
      vertex 59.5 18.5 18
      vertex 58.5 18.5 18
    endloop
  endfacet
  facet normal 0 0 1
    outer loop
      vertex 59.5 18.5 18
      vertex 58.5 8.5 18
      vertex 59.5 7.5 18
    endloop
  endfacet
  facet normal -0 0 1
    outer loop
      vertex 8.5 8.5 18
      vertex 59.5 7.5 18
      vertex 58.5 8.5 18
    endloop
  endfacet
  facet normal 0 0 1
    outer loop
      vertex 8.5 8.5 18
      vertex 7.5 7.5 18
      vertex 59.5 7.5 18
    endloop
  endfacet
  facet normal 0 0 1
    outer loop
      vertex 7.5 7.5 18
      vertex 8.5 8.5 18
      vertex 7.5 18.5 18
    endloop
  endfacet
  facet normal -0 0 1
    outer loop
      vertex 7.5 28.5 3
      vertex 8.5 18.5 3
      vertex 8.5 28.5 3
    endloop
  endfacet
  facet normal 0 0 1
    outer loop
      vertex 8.5 18.5 3
      vertex 7.5 28.5 3
      vertex 7.5 18.5 3
    endloop
  endfacet
  facet normal 0 0 1
    outer loop
      vertex 8.5 28.5 3
      vertex 58.5 28.5 3
      vertex 58.5 38.5 3
    endloop
  endfacet
  facet normal 0 0 1
    outer loop
      vertex 58.5 28.5 3
      vertex 8.5 28.5 3
      vertex 58.5 18.5 3
    endloop
  endfacet
  facet normal 0 0 1
    outer loop
      vertex 8.5 28.5 3
      vertex 58.5 38.5 3
      vertex 8.5 38.5 3
    endloop
  endfacet
  facet normal 0 0 1
    outer loop
      vertex 8.5 18.5 3
      vertex 58.5 18.5 3
      vertex 8.5 28.5 3
    endloop
  endfacet
  facet normal 0 0 1
    outer loop
      vertex 58.5 18.5 3
      vertex 8.5 18.5 3
      vertex 58.5 8.5 3
    endloop
  endfacet
  facet normal 0 0 1
    outer loop
      vertex 58.5 8.5 3
      vertex 8.5 18.5 3
      vertex 8.5 8.5 3
    endloop
  endfacet
  facet normal -0 0 1
    outer loop
      vertex 58.5 28.5 3
      vertex 59.5 18.5 3
      vertex 59.5 28.5 3
    endloop
  endfacet
  facet normal 0 0 1
    outer loop
      vertex 59.5 18.5 3
      vertex 58.5 28.5 3
      vertex 58.5 18.5 3
    endloop
  endfacet
  facet normal 1 -0 0
    outer loop
      vertex 8.5 28.5 18
      vertex 8.5 38.5 3
      vertex 8.5 38.5 18
    endloop
  endfacet
  facet normal 1 0 0
    outer loop
      vertex 8.5 38.5 3
      vertex 8.5 28.5 18
      vertex 8.5 28.5 3
    endloop
  endfacet
  facet normal 1 -0 0
    outer loop
      vertex 8.5 8.5 18
      vertex 8.5 18.5 3
      vertex 8.5 18.5 18
    endloop
  endfacet
  facet normal 1 0 0
    outer loop
      vertex 8.5 18.5 3
      vertex 8.5 8.5 18
      vertex 8.5 8.5 3
    endloop
  endfacet
  facet normal 0 -1 0
    outer loop
      vertex 8.5 38.5 3
      vertex 58.5 38.5 18
      vertex 8.5 38.5 18
    endloop
  endfacet
  facet normal 0 -1 -0
    outer loop
      vertex 58.5 38.5 18
      vertex 8.5 38.5 3
      vertex 58.5 38.5 3
    endloop
  endfacet
  facet normal 0 1 -0
    outer loop
      vertex 58.5 8.5 3
      vertex 8.5 8.5 18
      vertex 58.5 8.5 18
    endloop
  endfacet
  facet normal 0 1 0
    outer loop
      vertex 8.5 8.5 18
      vertex 58.5 8.5 3
      vertex 8.5 8.5 3
    endloop
  endfacet
  facet normal 0 -1 0
    outer loop
      vertex 7.5 28.5 3
      vertex 8.5 28.5 18
      vertex 7.5 28.5 18
    endloop
  endfacet
  facet normal 0 -1 -0
    outer loop
      vertex 8.5 28.5 18
      vertex 7.5 28.5 3
      vertex 8.5 28.5 3
    endloop
  endfacet
  facet normal 0 -1 0
    outer loop
      vertex 58.5 28.5 3
      vertex 59.5 28.5 18
      vertex 58.5 28.5 18
    endloop
  endfacet
  facet normal 0 -1 -0
    outer loop
      vertex 59.5 28.5 18
      vertex 58.5 28.5 3
      vertex 59.5 28.5 3
    endloop
  endfacet
  facet normal 0 1 -0
    outer loop
      vertex 8.5 18.5 3
      vertex 7.5 18.5 18
      vertex 8.5 18.5 18
    endloop
  endfacet
  facet normal 0 1 0
    outer loop
      vertex 7.5 18.5 18
      vertex 8.5 18.5 3
      vertex 7.5 18.5 3
    endloop
  endfacet
  facet normal 0 1 -0
    outer loop
      vertex 59.5 18.5 3
      vertex 58.5 18.5 18
      vertex 59.5 18.5 18
    endloop
  endfacet
  facet normal 0 1 0
    outer loop
      vertex 58.5 18.5 18
      vertex 59.5 18.5 3
      vertex 58.5 18.5 3
    endloop
  endfacet
  facet normal 1 0 0
    outer loop
      vertex 59.5 18.5 18
      vertex 59.5 7.5 18
      vertex 59.5 18.5 3
    endloop
  endfacet
  facet normal 1 0 0
    outer loop
      vertex 59.5 28.5 3
      vertex 59.5 39.5 18
      vertex 59.5 28.5 18
    endloop
  endfacet
  facet normal 1 0 0
    outer loop
      vertex 59.5 39.5 18
      vertex 59.5 28.5 3
      vertex 59.5 39.5 2
    endloop
  endfacet
  facet normal 1 -0 0
    outer loop
      vertex 59.5 18.5 3
      vertex 59.5 39.5 2
      vertex 59.5 28.5 3
    endloop
  endfacet
  facet normal 1 0 0
    outer loop
      vertex 59.5 18.5 3
      vertex 59.5 7.5 2
      vertex 59.5 39.5 2
    endloop
  endfacet
  facet normal 1 0 0
    outer loop
      vertex 59.5 7.5 2
      vertex 59.5 18.5 3
      vertex 59.5 7.5 18
    endloop
  endfacet
  facet normal 0 0 1
    outer loop
      vertex 67 47 2
      vertex 59.5 39.5 2
      vertex 67 0 2
    endloop
  endfacet
  facet normal 0 0 1
    outer loop
      vertex 67 47 2
      vertex 7.5 39.5 2
      vertex 59.5 39.5 2
    endloop
  endfacet
  facet normal 0 0 1
    outer loop
      vertex 7.5 39.5 2
      vertex 0 47 2
      vertex 7.5 7.5 2
    endloop
  endfacet
  facet normal -0 0 1
    outer loop
      vertex 0 47 2
      vertex 7.5 39.5 2
      vertex 67 47 2
    endloop
  endfacet
  facet normal -0 0 1
    outer loop
      vertex 59.5 7.5 2
      vertex 67 0 2
      vertex 59.5 39.5 2
    endloop
  endfacet
  facet normal -0 0 1
    outer loop
      vertex 7.5 7.5 2
      vertex 67 0 2
      vertex 59.5 7.5 2
    endloop
  endfacet
  facet normal 0 0 1
    outer loop
      vertex 7.5 7.5 2
      vertex 0 0 2
      vertex 67 0 2
    endloop
  endfacet
  facet normal 0 0 1
    outer loop
      vertex 0 0 2
      vertex 7.5 7.5 2
      vertex 0 47 2
    endloop
  endfacet
  facet normal -1 0 0
    outer loop
      vertex 7.5 39.5 2
      vertex 7.5 28.5 3
      vertex 7.5 39.5 18
    endloop
  endfacet
  facet normal -1 0 0
    outer loop
      vertex 7.5 39.5 2
      vertex 7.5 18.5 3
      vertex 7.5 28.5 3
    endloop
  endfacet
  facet normal -1 0 0
    outer loop
      vertex 7.5 7.5 2
      vertex 7.5 18.5 3
      vertex 7.5 39.5 2
    endloop
  endfacet
  facet normal -1 0 0
    outer loop
      vertex 7.5 7.5 18
      vertex 7.5 18.5 3
      vertex 7.5 7.5 2
    endloop
  endfacet
  facet normal -1 0 0
    outer loop
      vertex 7.5 18.5 3
      vertex 7.5 7.5 18
      vertex 7.5 18.5 18
    endloop
  endfacet
  facet normal -1 -0 0
    outer loop
      vertex 7.5 39.5 18
      vertex 7.5 28.5 3
      vertex 7.5 28.5 18
    endloop
  endfacet
  facet normal 0 1 -0
    outer loop
      vertex 59.5 39.5 2
      vertex 7.5 39.5 18
      vertex 59.5 39.5 18
    endloop
  endfacet
  facet normal 0 1 0
    outer loop
      vertex 7.5 39.5 18
      vertex 59.5 39.5 2
      vertex 7.5 39.5 2
    endloop
  endfacet
  facet normal 0 -1 0
    outer loop
      vertex 7.5 7.5 2
      vertex 59.5 7.5 18
      vertex 7.5 7.5 18
    endloop
  endfacet
  facet normal 0 -1 -0
    outer loop
      vertex 59.5 7.5 18
      vertex 7.5 7.5 2
      vertex 59.5 7.5 2
    endloop
  endfacet
  facet normal 1 -0 0
    outer loop
      vertex 67 0 2
      vertex 67 47 0
      vertex 67 47 2
    endloop
  endfacet
  facet normal 1 0 0
    outer loop
      vertex 67 47 0
      vertex 67 0 2
      vertex 67 0 0
    endloop
  endfacet
  facet normal 0 0 -1
    outer loop
      vertex 0 0 0
      vertex 67 47 0
      vertex 67 0 0
    endloop
  endfacet
  facet normal -0 0 -1
    outer loop
      vertex 67 47 0
      vertex 0 0 0
      vertex 0 47 0
    endloop
  endfacet
  facet normal -1 0 0
    outer loop
      vertex 0 0 0
      vertex 0 47 2
      vertex 0 47 0
    endloop
  endfacet
  facet normal -1 -0 0
    outer loop
      vertex 0 47 2
      vertex 0 0 0
      vertex 0 0 2
    endloop
  endfacet
  facet normal 0 1 -0
    outer loop
      vertex 67 47 0
      vertex 0 47 2
      vertex 67 47 2
    endloop
  endfacet
  facet normal 0 1 0
    outer loop
      vertex 0 47 2
      vertex 67 47 0
      vertex 0 47 0
    endloop
  endfacet
  facet normal 0 -1 0
    outer loop
      vertex 0 0 0
      vertex 67 0 2
      vertex 0 0 2
    endloop
  endfacet
  facet normal 0 -1 -0
    outer loop
      vertex 67 0 2
      vertex 0 0 0
      vertex 67 0 0
    endloop
  endfacet
endsolid OpenSCAD_Model
